<?xml version="1.0" standalone="no"?>
<!DOCTYPE svg PUBLIC "-//W3C//DTD SVG 20010904//EN"
 "http://www.w3.org/TR/2001/REC-SVG-20010904/DTD/svg10.dtd">
<svg version="1.0" xmlns="http://www.w3.org/2000/svg"
 width="6751.000000pt" height="4018.000000pt" viewBox="0 0 6751.000000 4018.000000"
 preserveAspectRatio="xMidYMid meet">

<g transform="translate(0.000000,4018.000000) scale(0.100000,-0.100000)"
fill="#000000" stroke="none">
<path d="M26533 27042 l-31 -38 274 -525 c151 -288 412 -787 579 -1109 l305
-585 207 -105 c1539 -781 2642 -1459 3074 -1889 180 -180 217 -244 743 -1293
254 -508 530 -1053 613 -1213 432 -831 1826 -3542 1826 -3551 0 -14 -360 -704
-378 -722 -9 -11 -48 58 -193 343 -100 196 -182 360 -182 364 0 4 25 68 56
142 30 73 82 198 114 276 l58 141 -90 169 c-331 620 -643 1201 -653 1216 -10
15 -52 -59 -287 -515 -494 -955 -718 -1394 -718 -1406 0 -6 78 -161 174 -344
95 -183 516 -994 936 -1803 419 -808 766 -1476 770 -1484 8 -15 -17 -61 512
949 675 1289 1381 2644 1391 2670 9 25 -305 632 -3325 6430 l-430 825 -511
300 c-2357 1380 -4772 2788 -4787 2792 -9 3 -29 -12 -47 -35z"/>
<path d="M40908 27049 c-32 -4 -72 -16 -90 -25 -63 -32 -3789 -2208 -4823
-2816 -121 -71 -253 -155 -294 -186 -127 -97 -107 -64 -538 -887 -116 -220
-434 -832 -708 -1360 -273 -528 -517 -997 -541 -1041 l-44 -81 321 -609 c451
-856 431 -820 441 -803 5 8 79 140 164 294 174 314 235 431 304 587 89 200
202 361 357 508 131 124 242 199 593 396 381 214 899 517 1595 931 286 170
590 351 675 401 182 108 275 176 331 241 53 61 386 686 1236 2316 198 380 530
1015 737 1412 207 397 376 724 376 727 0 7 -17 6 -92 -5z m-3162 -3261 c-80
-156 -201 -391 -269 -523 l-125 -240 -118 -64 c-255 -137 -546 -329 -765 -503
-61 -49 -113 -88 -114 -86 -9 9 324 861 437 1119 l33 76 170 67 c278 111 698
316 850 415 17 11 34 20 38 20 5 1 -57 -126 -137 -281z"/>
</g>
</svg>
