<svg xmlns="http://www.w3.org/2000/svg" viewBox="0 0 5058.19 3015.98"><title>Artboard 10 copy 36</title><g id="Layer_1" data-name="Layer 1"><path d="M3192,2695.09c-221.66,425.3-441.51,847-681.19,1302.91-237.88-457.73-454.13-875.82-675.78-1301.11,113.53-221.65,227.06-441.51,356.81-692,99.12,183.81,183.81,342.39,268.52,501-25.16,60.37-48.76,117.63-76.6,184.82q-3.12,7.53-6.3,15.21c36,70.29,75.68,147.77,133.35,261.31,55.86-104.53,97.31-183.82,140.57-266.71q-76.07-147.59-151.93-294.95Q2214,1851.12,1928.77,1298.48c-21.06-40.72-57.88-115.74-118.4-234.63-129.56-254.49-160.9-333.77-208.61-412.47,0,0-16.57-26.23-35.21-53.91C1396,344.24,403.32-146,339.33-177.43Q133.89-574.78-75.15-972.15c9-9,18-18,25.22-27C575.4-633.35,1200.72-269.33,1845.87,109.1,2289.19,959.68,2739.71,1826.48,3192,2695.09Z"/><path d="M5044.57-979.35q-892,519-1782.27,1041.6c-43.24,25.23-86.49,57.67-108.12,97.31-201.83,380.25-398.26,764.09-594.68,1140.72,88.3,165.79,167.59,319,268.51,508.19,66.67-126.15,124.34-216.25,165.79-311.76C3047.86,1367,3138,1275.05,3269.52,1203c290.13-160.39,571.26-331.59,854.19-499.18,61.26-36,135.15-75.68,164-129.74,275.72-515.41,542.43-1034.41,820-1564.21C5068-984.76,5053.58-984.76,5044.57-979.35ZM3802.93,453.3a1852.72,1852.72,0,0,0-220.75,131.1c-51.69,35.76-98.17,71.81-139.67,106.77,23.43-68.48,50.47-138.75,79.29-210.84,25.24-64.87,50.47-127.95,77.49-189.21l1.81-1.81,12.61-32.43c58.28-21.39,120.54-46.91,185.62-77.49,73.92-34.73,140.61-70.88,200-106.33Q3901.14,263.17,3802.93,453.3Z"/></g></svg>